<svg xmlns="http://www.w3.org/2000/svg" width="32" height="32" viewBox="0 0 32 32" fill="none">
<g clip-path="url(#clip0_335_82)">
<path d="M20.1506 4.27997L20.276 4.39064L27.6093 11.724C27.8341 11.9499 27.9705 12.2489 27.9938 12.5668C28.017 12.8847 27.9257 13.2004 27.7363 13.4567C27.5469 13.713 27.2719 13.893 26.9612 13.9641C26.6505 14.0351 26.3246 13.9925 26.0426 13.844L21.8133 18.072L19.9146 23.1346C19.8646 23.2682 19.7935 23.3929 19.704 23.504L19.6106 23.6106L17.6106 25.6106C17.3809 25.84 17.0753 25.9777 16.7513 25.9978C16.4273 26.0179 16.107 25.9191 15.8506 25.72L15.724 25.6093L12 21.8866L6.94263 26.9426C6.70269 27.1818 6.38072 27.3206 6.04212 27.3309C5.70352 27.3413 5.37368 27.2223 5.1196 26.9983C4.86551 26.7743 4.70623 26.4619 4.6741 26.1247C4.64198 25.7874 4.73942 25.4506 4.94663 25.1826L5.0573 25.0573L10.1133 20L6.39064 16.276C6.16107 16.0464 6.02316 15.7409 6.00278 15.4169C5.98241 15.0928 6.08097 14.7725 6.27997 14.516L6.39064 14.3906L8.39064 12.3906C8.49124 12.2897 8.60738 12.2055 8.73463 12.1413L8.8653 12.0853L13.9266 10.1853L18.1546 5.95864C18.0105 5.68908 17.9633 5.37817 18.021 5.07798C18.0788 4.77779 18.2379 4.50655 18.4718 4.3097C18.7056 4.11285 19.0001 4.00234 19.3057 3.99669C19.6113 3.99103 19.9096 4.09191 20.1506 4.27997Z" fill="white"/>
</g>
<defs>
<clipPath id="clip0_335_82">
<rect width="32" height="32" fill="white"/>
</clipPath>
</defs>
</svg>